<svg width="95" height="95" viewBox="0 0 95 95" fill="none" xmlns="http://www.w3.org/2000/svg">
<path d="M44.6296 75.901H50.0723V70.7552C54.0966 70.2934 57.2302 69.0564 59.4733 67.0442C61.7164 65.0321 62.8379 62.3437 62.8379 58.9791C62.8379 55.6145 61.8813 52.8767 59.9681 50.7656C58.0549 48.6545 54.8223 46.6423 50.2702 44.7291C46.4438 43.1458 43.673 41.7274 41.9577 40.4739C40.2424 39.2204 39.3848 37.5382 39.3848 35.427C39.3848 33.3819 40.127 31.7656 41.6113 30.5781C43.0957 29.3906 45.1243 28.7968 47.6973 28.7968C49.6764 28.7968 51.3917 29.2586 52.8431 30.1822C54.2945 31.1059 55.515 32.4913 56.5046 34.3385L61.2546 32.0625C60.133 29.7534 58.6487 27.9392 56.8014 26.6198C54.9542 25.3003 52.7771 24.5086 50.2702 24.2448V19.1979H44.8275V24.2448C41.4629 24.7066 38.8075 25.9435 36.8613 27.9557C34.9151 29.9678 33.9421 32.4583 33.9421 35.427C33.9421 38.6597 34.9316 41.2326 36.9108 43.1458C38.89 45.059 41.8587 46.8402 45.8171 48.4895C50.2372 50.3368 53.2719 52.0026 54.9212 53.4869C56.5705 54.9713 57.3952 56.802 57.3952 58.9791C57.3952 61.0902 56.521 62.789 54.7728 64.0755C53.0245 65.3619 50.8309 66.0052 48.1921 66.0052C45.6191 66.0052 43.3266 65.2795 41.3145 63.8281C39.3023 62.3767 37.9004 60.3975 37.1087 57.8906L32.0618 59.5729C33.4473 62.6076 35.146 64.9991 37.1582 66.7474C39.1704 68.4956 41.6608 69.7656 44.6296 70.5572V75.901ZM47.4993 87.0833C42.0896 87.0833 36.9768 86.0442 32.1608 83.9661C27.3448 81.888 23.1391 79.0512 19.5436 75.4557C15.9481 71.8602 13.1113 67.6545 11.0332 62.8385C8.95508 58.0225 7.91602 52.9097 7.91602 47.5C7.91602 42.0243 8.95508 36.8784 11.0332 32.0625C13.1113 27.2465 15.9481 23.0573 19.5436 19.4948C23.1391 15.9323 27.3448 13.1119 32.1608 11.0338C36.9768 8.95569 42.0896 7.91663 47.4993 7.91663C52.975 7.91663 58.1209 8.95569 62.9368 11.0338C67.7528 13.1119 71.9421 15.9323 75.5046 19.4948C79.0671 23.0573 81.8874 27.2465 83.9655 32.0625C86.0436 36.8784 87.0827 42.0243 87.0827 47.5C87.0827 52.9097 86.0436 58.0225 83.9655 62.8385C81.8874 67.6545 79.0671 71.8602 75.5046 75.4557C71.9421 79.0512 67.7528 81.888 62.9368 83.9661C58.1209 86.0442 52.975 87.0833 47.4993 87.0833ZM47.4993 81.1458C56.8674 81.1458 64.8171 77.8637 71.3483 71.2994C77.8796 64.7352 81.1452 56.802 81.1452 47.5C81.1452 38.1319 77.8796 30.1822 71.3483 23.651C64.8171 17.1198 56.8674 13.8541 47.4993 13.8541C38.1973 13.8541 30.2641 17.1198 23.6999 23.651C17.1356 30.1822 13.8535 38.1319 13.8535 47.5C13.8535 56.802 17.1356 64.7352 23.6999 71.2994C30.2641 77.8637 38.1973 81.1458 47.4993 81.1458Z" fill="black"/>
</svg>
