<svg width="99" height="105" viewBox="0 0 99 105" fill="none" xmlns="http://www.w3.org/2000/svg">
<path d="M46.4062 88.1562V54.3594L18.5625 37.2969V71.0938L46.4062 88.1562ZM52.5938 88.1562L80.4375 71.0938V37.1875L52.5938 54.3419V88.1562ZM49.5 48.7812L76.9313 31.8281L49.5 14.9844L21.9656 31.8281L49.5 48.7812ZM15.4688 76.7812C14.4891 76.1666 13.7287 75.3568 13.1876 74.352C12.6459 73.3465 12.375 72.2604 12.375 71.0938V33.9062C12.375 32.7396 12.6459 31.6535 13.1876 30.648C13.7287 29.6432 14.4891 28.8334 15.4688 28.2188L46.4062 9.29688C47.3914 8.71354 48.4282 8.42188 49.5165 8.42188C50.6055 8.42188 51.6312 8.71354 52.5938 9.29688L83.5312 28.2188C84.5109 28.8334 85.2717 29.6432 85.8134 30.648C86.3545 31.6535 86.625 32.7396 86.625 33.9062V71.0938C86.625 72.2604 86.3545 73.3465 85.8134 74.352C85.2717 75.3568 84.5109 76.1666 83.5312 76.7812L52.5938 95.7031C51.6086 96.2865 50.5718 96.5781 49.4835 96.5781C48.3945 96.5781 47.3687 96.2865 46.4062 95.7031L15.4688 76.7812Z" fill="black"/>
<path d="M22.5 76.5V39.5L57.5 17" stroke="black" stroke-width="5"/>
<path d="M30 81.5V44.5L65 22" stroke="black" stroke-width="5"/>
<path d="M40 86.5V49.5L75 27" stroke="black" stroke-width="5"/>
<path d="M27 27L58 47.5V87" stroke="black" stroke-width="5"/>
<path d="M35 22L66 42.5V82" stroke="black" stroke-width="5"/>
<path d="M43 17L74 37.5V77" stroke="black" stroke-width="5"/>
<path d="M17 43.5L49 63.5L84 42" stroke="black" stroke-width="5"/>
<path d="M17 54.5L49 74.5L84 53" stroke="black" stroke-width="5"/>
<path d="M17 64.5L49 84.5L84 63" stroke="black" stroke-width="5"/>
</svg>
