<svg width="30" height="30" viewBox="0 0 30 30" fill="none" xmlns="http://www.w3.org/2000/svg">
<path d="M15 27.5C13.264 27.5 11.6355 27.1719 10.1147 26.5156C8.59386 25.8594 7.26917 24.967 6.14063 23.8384C5.01208 22.7101 4.12323 21.382 3.47406 19.8541C2.82469 18.3264 2.5 16.6945 2.5 14.9584C2.5 13.2153 2.82469 11.5885 3.47406 10.0781C4.12323 8.56771 5.01208 7.24823 6.14063 6.11969C7.26917 4.99135 8.59386 4.10594 10.1147 3.46344C11.6355 2.82115 13.264 2.5 15 2.5C16.7431 2.5 18.3733 2.82115 19.8906 3.46344C21.4079 4.10594 22.7308 4.99135 23.8594 6.11969C24.9879 7.24823 25.8768 8.56771 26.5259 10.0781C27.1753 11.5885 27.5 13.2153 27.5 14.9584C27.5 16.6945 27.1753 18.3264 26.5259 19.8541C25.8768 21.382 24.9879 22.7101 23.8594 23.8384C22.7308 24.967 21.4079 25.8594 19.8906 26.5156C18.3733 27.1719 16.7431 27.5 15 27.5ZM15 25.4375C15.6667 24.6875 16.2292 23.8542 16.6875 22.9375C17.1458 22.0208 17.5208 20.9653 17.8125 19.7709H12.2084C12.4861 20.9097 12.8542 21.9478 13.3125 22.8853C13.7708 23.8228 14.3333 24.6735 15 25.4375ZM12.1459 25.0209C11.6736 24.2639 11.2656 23.4566 10.9219 22.5991C10.5781 21.7414 10.2917 20.7986 10.0625 19.7709H5.70844C6.4376 21.1043 7.30042 22.1806 8.29688 23C9.29333 23.8194 10.5764 24.493 12.1459 25.0209ZM17.875 25C19.264 24.5556 20.5088 23.8855 21.6094 22.9897C22.71 22.0939 23.6041 21.0209 24.2916 19.7709H19.9584C19.7153 20.7847 19.4253 21.7204 19.0884 22.5781C18.7518 23.4358 18.3473 24.2431 17.875 25ZM4.9375 17.6875H9.66656C9.60406 17.1735 9.56417 16.6996 9.54688 16.2656C9.52958 15.8317 9.52094 15.3959 9.52094 14.9584C9.52094 14.4653 9.53302 14.0156 9.55719 13.6094C9.58156 13.2031 9.625 12.7639 9.6875 12.2916H4.9375C4.80563 12.7639 4.71365 13.1997 4.66156 13.5991C4.60948 13.9982 4.58344 14.4514 4.58344 14.9584C4.58344 15.4653 4.60948 15.9289 4.66156 16.3491C4.71365 16.7691 4.80563 17.2152 4.9375 17.6875ZM11.7916 17.6875H18.2291C18.3055 17.1181 18.3559 16.6303 18.3803 16.2241C18.4045 15.8178 18.4166 15.3959 18.4166 14.9584C18.4166 14.5347 18.4045 14.1267 18.3803 13.7344C18.3559 13.3421 18.3055 12.8611 18.2291 12.2916H11.7916C11.7153 12.8611 11.665 13.3421 11.6406 13.7344C11.6163 14.1267 11.6041 14.5347 11.6041 14.9584C11.6041 15.3959 11.6163 15.8178 11.6406 16.2241C11.665 16.6303 11.7153 17.1181 11.7916 17.6875ZM20.3125 17.6875H25.0625C25.1944 17.2152 25.2864 16.7691 25.3384 16.3491C25.3905 15.9289 25.4166 15.4653 25.4166 14.9584C25.4166 14.4514 25.3905 13.9982 25.3384 13.5991C25.2864 13.1997 25.1944 12.7639 25.0625 12.2916H20.3334C20.3959 12.9166 20.4393 13.4253 20.4634 13.8178C20.4878 14.2101 20.5 14.5903 20.5 14.9584C20.5 15.4097 20.4844 15.8384 20.4531 16.2447C20.4219 16.6509 20.375 17.1319 20.3125 17.6875ZM19.9375 10.2084H24.2916C23.632 8.90281 22.7518 7.80208 21.6509 6.90625C20.5503 6.01042 19.2847 5.36802 17.8541 4.97906C18.3264 5.72219 18.7309 6.51563 19.0678 7.35938C19.4045 8.20313 19.6944 9.15281 19.9375 10.2084ZM12.2084 10.2084H17.8334C17.5972 9.16677 17.2326 8.16677 16.7397 7.20844C16.2466 6.2501 15.6667 5.38198 15 4.60406C14.375 5.22906 13.8438 5.9826 13.4063 6.86469C12.9688 7.74656 12.5695 8.86115 12.2084 10.2084ZM5.70844 10.2084H10.0834C10.2986 9.19448 10.5711 8.26906 10.9009 7.43219C11.2309 6.59552 11.639 5.78479 12.125 5C10.6944 5.38896 9.43917 6.02438 8.35938 6.90625C7.27958 7.78813 6.39594 8.88885 5.70844 10.2084Z" fill="#1F1F1F"/>
</svg>
