<svg width="90" height="86" viewBox="0 0 90 86" fill="none" xmlns="http://www.w3.org/2000/svg">
<path d="M26.5315 61.6333C24.0315 63.6639 21.4221 64.5746 18.7034 64.3656C15.9846 64.1566 13.6252 63.2458 11.6252 61.6333C9.62523 60.0208 8.29711 57.9455 7.64086 55.4073C6.98461 52.8691 7.50023 50.2562 9.18773 47.5687L16.8752 35.2958C15.1877 34.0417 13.844 32.4701 12.844 30.581C11.844 28.6914 11.344 26.6498 11.344 24.4562C11.344 20.6621 12.7577 17.4144 15.5852 14.7131C18.4127 12.0113 21.8115 10.6604 25.7815 10.6604C29.7515 10.6604 33.1502 12.0113 35.9777 14.7131C38.8052 17.4144 40.219 20.6621 40.219 24.4562C40.219 28.2504 38.8052 31.4981 35.9777 34.1993C33.1502 36.9012 29.7515 38.2521 25.7815 38.2521C25.1065 38.2521 24.4315 38.2073 23.7565 38.1177C23.0815 38.0281 22.444 37.8937 21.844 37.7146L13.969 50.3458C13.094 51.7194 12.8184 53.0665 13.1421 54.3869C13.4652 55.7068 14.1527 56.7818 15.2046 57.6119C16.2559 58.4415 17.4846 58.901 18.8909 58.9906C20.2971 59.0802 21.6252 58.6173 22.8752 57.6021L63.469 24.2771C65.969 22.2465 68.594 21.3208 71.344 21.5C74.094 21.6792 76.469 22.575 78.469 24.1875C80.469 25.8 81.7971 27.8903 82.4534 30.4583C83.1096 33.0264 82.594 35.6542 80.9065 38.3417L73.3127 50.6146C75.0002 51.8687 76.344 53.4403 77.344 55.3293C78.344 57.219 78.844 59.2606 78.844 61.4542C78.844 65.2477 77.4209 68.4954 74.5746 71.1972C71.7277 73.8991 68.3059 75.25 64.309 75.25C60.3115 75.25 56.9221 73.8991 54.1409 71.1972C51.3596 68.4954 49.969 65.2477 49.969 61.4542C49.969 57.6606 51.3596 54.4129 54.1409 51.7111C56.9221 49.0092 60.3127 47.6583 64.3127 47.6583C64.9834 47.6583 65.6356 47.6882 66.2693 47.7479C66.9024 47.8076 67.5315 47.9271 68.1565 48.1062L76.0315 35.5646C76.9065 34.191 77.1821 32.8439 76.8584 31.5235C76.5352 30.2036 75.8477 29.1286 74.7959 28.2985C73.7446 27.4689 72.5159 27.0094 71.1096 26.9198C69.7034 26.8302 68.3752 27.293 67.1252 28.3083L26.5315 61.6333ZM25.7965 32.8771C28.224 32.8771 30.2971 32.0511 32.0159 30.3992C33.7346 28.7473 34.594 26.7615 34.594 24.4419C34.594 22.1223 33.7296 20.1413 32.0009 18.4989C30.2721 16.8566 28.194 16.0354 25.7665 16.0354C23.339 16.0354 21.2659 16.8614 19.5471 18.5133C17.8284 20.1652 16.969 22.151 16.969 24.4706C16.969 26.7902 17.8334 28.7712 19.5621 30.4135C21.2909 32.0559 23.369 32.8771 25.7965 32.8771ZM64.3249 69.875C66.7712 69.875 68.8649 69.049 70.6062 67.3971C72.3481 65.7452 73.219 63.7594 73.219 61.4398C73.219 59.1202 72.3481 57.1392 70.6062 55.4969C68.8649 53.8545 66.7712 53.0333 64.3249 53.0333C61.8793 53.0333 59.8127 53.8593 58.1252 55.5112C56.4377 57.1631 55.594 59.1489 55.594 61.4685C55.594 63.7881 56.4377 65.7691 58.1252 67.4114C59.8127 69.0538 61.8793 69.875 64.3249 69.875Z" fill="black"/>
</svg>
