<svg width="60" height="73" viewBox="0 0 60 73" fill="none" xmlns="http://www.w3.org/2000/svg">
<path d="M0.666016 72.125V52.3333C0.666016 50.1562 1.38407 48.2925 2.82018 46.7422C4.25629 45.1918 5.98268 44.4167 7.99935 44.4167H51.9993C54.016 44.4167 55.7424 45.1918 57.1785 46.7422C58.6146 48.2925 59.3327 50.1562 59.3327 52.3333V72.125H0.666016ZM18.9993 40.4583C13.9271 40.4583 9.60351 38.5286 6.02852 34.6693C2.45352 30.8099 0.666016 26.1424 0.666016 20.6667C0.666016 15.191 2.45352 10.5234 6.02852 6.66406C9.60351 2.80469 13.9271 0.875 18.9993 0.875H40.9993C46.0716 0.875 50.3952 2.80469 53.9702 6.66406C57.5452 10.5234 59.3327 15.191 59.3327 20.6667C59.3327 26.1424 57.5452 30.8099 53.9702 34.6693C50.3952 38.5286 46.0716 40.4583 40.9993 40.4583H18.9993ZM7.99935 64.2083H51.9993V52.3333H7.99935V64.2083ZM18.9993 32.5417H40.9993C44.0549 32.5417 46.6521 31.3872 48.791 29.0781C50.9299 26.7691 51.9993 23.9653 51.9993 20.6667C51.9993 17.3681 50.9299 14.5642 48.791 12.2552C46.6521 9.94618 44.0549 8.79167 40.9993 8.79167H18.9993C15.9438 8.79167 13.3466 9.94618 11.2077 12.2552C9.06879 14.5642 7.99935 17.3681 7.99935 20.6667C7.99935 23.9653 9.06879 26.7691 11.2077 29.0781C13.3466 31.3872 15.9438 32.5417 18.9993 32.5417ZM18.9993 24.625C20.0382 24.625 20.9091 24.2457 21.6118 23.487C22.3146 22.7283 22.666 21.7882 22.666 20.6667C22.666 19.5451 22.3146 18.605 21.6118 17.8464C20.9091 17.0877 20.0382 16.7083 18.9993 16.7083C17.9605 16.7083 17.0896 17.0877 16.3868 17.8464C15.6841 18.605 15.3327 19.5451 15.3327 20.6667C15.3327 21.7882 15.6841 22.7283 16.3868 23.487C17.0896 24.2457 17.9605 24.625 18.9993 24.625ZM40.9993 24.625C42.0382 24.625 42.9091 24.2457 43.6118 23.487C44.3146 22.7283 44.666 21.7882 44.666 20.6667C44.666 19.5451 44.3146 18.605 43.6118 17.8464C42.9091 17.0877 42.0382 16.7083 40.9993 16.7083C39.9605 16.7083 39.0896 17.0877 38.3868 17.8464C37.6841 18.605 37.3327 19.5451 37.3327 20.6667C37.3327 21.7882 37.6841 22.7283 38.3868 23.487C39.0896 24.2457 39.9605 24.625 40.9993 24.625Z" fill="black"/>
</svg>
