<svg width="34" height="36" viewBox="0 0 34 36" fill="none" xmlns="http://www.w3.org/2000/svg">
<path d="M20.0338 16.2499L14.1547 10.0249L15.8426 8.25L20.0338 12.7125L28.2384 4.06238L29.8913 5.78738L20.0338 16.2499ZM10.7426 28.2499L21.2734 31.4501L29.9384 28.575C29.8993 28.1668 29.7203 27.823 29.4015 27.5438C29.0828 27.2645 28.7109 27.1249 28.2859 27.1249H20.9663C20.5019 27.1249 20.0848 27.0958 19.7151 27.0375C19.3451 26.9793 18.9751 26.8834 18.6051 26.7499L15.2405 25.6376L15.9489 23.1375L19.1247 24.2749C19.4316 24.3834 19.7661 24.4668 20.128 24.525C20.4902 24.5833 20.9349 24.6166 21.4622 24.6251H22.7843C22.7843 24.1834 22.6485 23.7916 22.377 23.4499C22.1055 23.1084 21.7769 22.8584 21.3913 22.6999L13.4817 19.5499H10.7426V28.2499ZM2.83301 33V17.0501H13.458C13.5919 17.0501 13.7297 17.0646 13.8713 17.0936C14.013 17.1229 14.1467 17.1625 14.2726 17.2125L22.1942 20.3501C23.052 20.6834 23.7702 21.2334 24.3486 22.0001C24.9271 22.7666 25.2163 23.6416 25.2163 24.6251H28.2859C29.482 24.6251 30.4973 25.0709 31.3317 25.9624C32.1659 26.8541 32.583 27.95 32.583 29.25V30.4001L21.4151 34.05L10.7426 30.8501V33H2.83301ZM5.19424 30.4999H8.35801V19.5499H5.19424V30.4999Z" fill="#1F1F1F"/>
</svg>
