<svg width="26" height="26" viewBox="0 0 26 26" fill="none" xmlns="http://www.w3.org/2000/svg">
<path d="M12.6753 19.5C10.942 19.4097 9.47949 18.7417 8.28783 17.4959C7.09616 16.25 6.50033 14.7514 6.50033 13C6.50033 11.1945 7.13227 9.65974 8.39616 8.39585C9.66005 7.13196 11.1948 6.50002 13.0003 6.50002C14.7517 6.50002 16.2503 7.09585 17.4962 8.28752C18.742 9.47919 19.41 10.9477 19.5003 12.6932L17.6045 12.1063C17.3938 11.0108 16.8641 10.1035 16.0155 9.3844C15.1669 8.66524 14.1618 8.30567 13.0003 8.30567C11.7003 8.30567 10.5929 8.76301 9.67801 9.67771C8.76332 10.5926 8.30597 11.7 8.30597 13C8.30597 14.1496 8.66555 15.1517 9.3847 16.0063C10.1039 16.8608 11.0111 17.3935 12.1066 17.6042L12.6753 19.5ZM13.9753 23.7792C13.8128 23.8032 13.6503 23.8183 13.4878 23.8244C13.3253 23.8304 13.1628 23.8334 13.0003 23.8334C11.5017 23.8334 10.0934 23.549 8.77533 22.9802C7.45727 22.4115 6.31074 21.6396 5.33574 20.6646C4.36074 19.6896 3.58887 18.5431 3.02012 17.225C2.45137 15.907 2.16699 14.4986 2.16699 13C2.16699 11.5014 2.45137 10.0931 3.02012 8.77502C3.58887 7.45696 4.36074 6.31044 5.33574 5.33544C6.31074 4.36044 7.45727 3.58856 8.77533 3.01981C10.0934 2.45106 11.5017 2.16669 13.0003 2.16669C14.4989 2.16669 15.9073 2.45106 17.2253 3.01981C18.5434 3.58856 19.6899 4.36044 20.6649 5.33544C21.6399 6.31044 22.4118 7.45696 22.9805 8.77502C23.5493 10.0931 23.8337 11.5014 23.8337 13C23.8337 13.1625 23.8307 13.325 23.8247 13.4875C23.8186 13.65 23.8035 13.8125 23.7795 13.975L22.028 13.4334V13C22.028 10.4843 21.1523 8.3508 19.4009 6.59942C17.6495 4.84803 15.516 3.97233 13.0003 3.97233C10.4846 3.97233 8.35111 4.84803 6.59972 6.59942C4.84833 8.3508 3.97264 10.4843 3.97264 13C3.97264 15.5157 4.84833 17.6492 6.59972 19.4006C8.35111 21.152 10.4846 22.0277 13.0003 22.0277H13.4337L13.9753 23.7792ZM22.2357 24.375L17.6045 19.7438L16.2503 23.8334L13.0003 13L23.8337 16.25L19.7441 17.6042L24.3753 22.2354L22.2357 24.375Z" fill="#1F1F1F"/>
</svg>
