<svg width="163" height="157" viewBox="0 0 163 157" fill="none" xmlns="http://www.w3.org/2000/svg">
<path d="M74.708 137.375V126.472H131.305V77.8458C131.305 64.6033 126.472 53.3702 116.808 44.1464C107.143 34.9216 95.3739 30.3092 81.4997 30.3092C67.6254 30.3092 55.856 34.9216 46.1915 44.1464C36.527 53.3702 31.6947 64.6033 31.6947 77.8458V117.75H27.1663C23.4309 117.75 20.2332 116.469 17.5731 113.907C14.913 111.345 13.583 108.265 13.583 104.667V91.5833C13.583 89.2937 14.1773 87.1404 15.3658 85.1234C16.5544 83.1064 18.224 81.4983 20.3747 80.299L20.8841 71.6312C21.7896 64.2174 24.0252 57.3486 27.5908 51.025C31.1564 44.7014 35.6276 39.1955 41.0044 34.5073C46.3811 29.8191 52.5502 26.1667 59.5117 23.55C66.4731 20.9333 73.8025 19.625 81.4997 19.625C89.1969 19.625 96.4979 20.9333 103.403 23.55C110.308 26.1667 116.477 29.7918 121.91 34.4255C127.343 39.0592 131.815 44.5378 135.324 50.8615C138.833 57.1851 141.097 64.0538 142.115 71.4677L142.625 79.9719C144.775 80.9531 146.445 82.425 147.634 84.3875C148.822 86.35 149.416 88.4215 149.416 90.6021V105.648C149.416 107.828 148.822 109.9 147.634 111.862C146.445 113.825 144.775 115.297 142.625 116.278V126.472C142.625 129.47 141.517 132.037 139.3 134.173C137.083 136.308 134.418 137.375 131.305 137.375H74.708ZM61.1043 90.4925C59.4958 90.4925 58.1539 89.9686 57.0785 88.9209C56.0032 87.872 55.4655 86.5724 55.4655 85.022C55.4655 83.4728 56.0094 82.1802 57.0972 81.1445C58.1861 80.1087 59.5354 79.5908 61.1451 79.5908C62.7535 79.5908 64.0955 80.1147 65.1708 81.1625C66.2462 82.2113 66.7838 83.5109 66.7838 85.0613C66.7838 86.6106 66.2399 87.9031 65.1521 88.9389C64.0632 89.9746 62.7139 90.4925 61.1043 90.4925ZM101.854 90.4925C100.246 90.4925 98.9039 89.9686 97.8285 88.9209C96.7532 87.872 96.2155 86.5724 96.2155 85.022C96.2155 83.4728 96.7594 82.1802 97.8472 81.1445C98.9362 80.1087 100.285 79.5908 101.895 79.5908C103.504 79.5908 104.845 80.1147 105.921 81.1625C106.996 82.2113 107.534 83.5109 107.534 85.0613C107.534 86.6106 106.99 87.9031 105.902 88.9389C104.813 89.9746 103.464 90.4925 101.854 90.4925ZM40.9195 81.4437C40.1271 69.8868 43.7493 59.9653 51.7861 51.6792C59.8229 43.3931 69.8407 39.25 81.8393 39.25C91.763 39.25 100.413 42.3666 107.789 48.5997C115.165 54.8317 119.646 62.6724 121.231 72.1219C111.081 72.0128 101.789 69.3051 93.3562 63.9988C84.9232 58.6935 78.4134 51.6432 73.8268 42.8479C72.0372 51.5701 68.2276 59.3384 62.3981 66.1526C56.5686 72.9668 49.4091 78.0639 40.9195 81.4437Z" fill="#1F1F1F" fill-opacity="0.12"/>
</svg>
