<svg width="34" height="33" viewBox="0 0 34 33" fill="none" xmlns="http://www.w3.org/2000/svg">
<path d="M19.3616 18.3332C18.181 18.3332 17.1775 17.9322 16.3511 17.1301C15.5247 16.328 15.1116 15.3541 15.1116 14.2082C15.1116 13.0624 15.5247 12.0884 16.3511 11.2863C17.1775 10.4843 18.181 10.0832 19.3616 10.0832C20.5421 10.0832 21.5456 10.4843 22.372 11.2863C23.1984 12.0884 23.6116 13.0624 23.6116 14.2082C23.6116 15.3541 23.1984 16.328 22.372 17.1301C21.5456 17.9322 20.5421 18.3332 19.3616 18.3332ZM8.50033 22.9168C7.85102 22.9168 7.29521 22.6923 6.83291 22.2434C6.37037 21.7947 6.1391 21.2552 6.1391 20.625V7.79178C6.1391 7.16157 6.37037 6.622 6.83291 6.17306C7.29521 5.72435 7.85102 5.5 8.50033 5.5H30.2224C30.8717 5.5 31.4277 5.72435 31.8902 6.17306C32.3525 6.622 32.5837 7.16157 32.5837 7.79178V20.625C32.5837 21.2552 32.3525 21.7947 31.8902 22.2434C31.4277 22.6923 30.8717 22.9168 30.2224 22.9168H8.50033ZM11.8058 20.625H26.917C26.917 19.7313 27.2377 18.9731 27.8793 18.3504C28.5205 17.728 29.3016 17.4168 30.2224 17.4168V11C29.3016 11 28.5205 10.6887 27.8793 10.066C27.2377 9.44362 26.917 8.68553 26.917 7.79178H11.8058C11.8058 8.68553 11.4851 9.44362 10.8438 10.066C10.2023 10.6887 9.42116 11 8.50033 11V17.4168C9.42116 17.4168 10.2023 17.728 10.8438 18.3504C11.4851 18.9731 11.8058 19.7313 11.8058 20.625ZM28.3337 27.5H3.77822C3.12892 27.5 2.57299 27.2756 2.11045 26.8269C1.64815 26.378 1.41699 25.8384 1.41699 25.2082V9.625H3.77822V25.2082H28.3337V27.5Z" fill="#1F1F1F"/>
</svg>
