<svg width="150" height="151" viewBox="0 0 150 151" fill="none" xmlns="http://www.w3.org/2000/svg">
<path d="M35.3125 109.79C41.4583 105.351 47.7776 101.917 54.2703 99.487C60.7641 97.0573 67.674 95.8425 75 95.8425C82.326 95.8425 89.2531 97.0573 95.7813 99.487C102.309 101.917 108.646 105.351 114.792 109.79C119.063 104.581 122.179 99.1456 124.141 93.4831C126.102 87.8206 127.083 81.8263 127.083 75.5C127.083 60.7146 122.074 48.2796 112.058 38.1951C102.04 28.1117 89.6875 23.0699 75 23.0699C60.3125 23.0699 47.9599 28.1117 37.9422 38.1951C27.9255 48.2796 22.9172 60.7146 22.9172 75.5C22.9172 81.8263 23.9151 87.8206 25.9109 93.4831C27.9078 99.1456 31.0417 104.581 35.3125 109.79ZM74.9813 80.7425C68.9177 80.7425 63.8109 78.6479 59.6609 74.4587C55.512 70.2685 53.4375 65.1214 53.4375 59.0174C53.4375 52.9134 55.5188 47.7731 59.6813 43.5965C63.8427 39.4188 68.9552 37.33 75.0188 37.33C81.0823 37.33 86.1891 39.4251 90.3391 43.6154C94.488 47.8056 96.5625 52.9528 96.5625 59.0567C96.5625 65.1607 94.4813 70.301 90.3188 74.4776C86.1573 78.6542 81.0448 80.7425 74.9813 80.7425ZM75.0484 138.417C66.4401 138.417 58.3339 136.765 50.7297 133.462C43.1255 130.159 36.4932 125.659 30.8328 119.962C25.1734 114.263 20.7031 107.595 17.4219 99.9573C14.1406 92.3192 12.5 84.1573 12.5 75.4717C12.5 66.7871 14.1406 58.6347 17.4219 51.0144C20.7031 43.3952 25.1734 36.7365 30.8328 31.0383C36.4932 25.3412 43.1172 20.8411 50.7047 17.538C58.2922 14.2349 66.4 12.5833 75.0281 12.5833C83.6552 12.5833 91.7537 14.2349 99.3234 17.538C106.892 20.8411 113.507 25.3412 119.167 31.0383C124.827 36.7365 129.297 43.3962 132.578 51.0175C135.859 58.6399 137.5 66.7845 137.5 75.4512C137.5 84.117 135.859 92.2772 132.578 99.9321C129.297 107.587 124.827 114.263 119.167 119.962C113.507 125.659 106.891 130.159 99.3203 133.462C91.7485 136.765 83.6578 138.417 75.0484 138.417ZM75 127.93C80.6594 127.93 86.1281 127.1 91.4063 125.44C96.6844 123.78 101.771 121.045 106.667 117.234C101.771 113.705 96.6672 111.004 91.3547 109.134C86.0422 107.264 80.5906 106.329 75 106.329C69.4094 106.329 63.9578 107.264 58.6453 109.134C53.3328 111.004 48.2286 113.705 43.3328 117.234C48.2286 121.045 53.3156 123.78 58.5938 125.44C63.8719 127.1 69.3406 127.93 75 127.93ZM75 70.2575C78.2635 70.2575 80.937 69.2088 83.0203 67.1116C85.1037 65.0144 86.1453 62.3226 86.1453 59.0363C86.1453 55.751 85.1037 53.0597 83.0203 50.9625C80.937 48.8653 78.2635 47.8167 75 47.8167C71.7365 47.8167 69.063 48.8653 66.9797 50.9625C64.8964 53.0597 63.8547 55.751 63.8547 59.0363C63.8547 62.3226 64.8964 65.0144 66.9797 67.1116C69.063 69.2088 71.7365 70.2575 75 70.2575Z" fill="#1F1F1F" fill-opacity="0.12"/>
</svg>
